<!--?xml version="1.0" standalone="no"?-->
              <svg id="sw-js-blob-svg" viewBox="0 0 100 100" xmlns="http://www.w3.org/2000/svg" version="1.1">
                    <defs> 
                        <linearGradient id="sw-gradient" x1="0" x2="1" y1="1" y2="0">
                            <stop id="stop1" stop-color="rgba(248, 117, 55, 1)" offset="0%"></stop>
                            <stop id="stop2" stop-color="rgba(251, 168, 31, 1)" offset="100%"></stop>
                        </linearGradient>
                    </defs>
                <path fill="url(#sw-gradient)" d="M19.3,-29.2C26.3,-25.5,34.2,-22.4,36.1,-16.9C38,-11.4,33.8,-3.6,31,3.2C28.1,10,26.5,15.8,23.8,22.8C21.1,29.8,17.3,38,11.4,40.5C5.5,43,-2.6,39.7,-10.1,36.6C-17.6,33.4,-24.5,30.3,-30.9,25.4C-37.3,20.5,-43.2,13.8,-43.9,6.5C-44.6,-0.8,-40.3,-8.6,-36,-15.9C-31.8,-23.1,-27.7,-29.9,-21.7,-34.1C-15.7,-38.3,-7.9,-39.9,-0.9,-38.6C6.1,-37.2,12.3,-33,19.3,-29.2Z" width="100%" height="100%" transform="translate(50 50)" style="transition: all 0.3s ease 0s;" stroke-width="0" stroke="url(#sw-gradient)"></path>
              </svg>