<!--?xml version="1.0" standalone="no"?-->
              <svg id="sw-js-blob-svg" viewBox="0 0 100 100" xmlns="http://www.w3.org/2000/svg" version="1.1">
                    <defs> 
                        <linearGradient id="sw-gradient" x1="0" x2="1" y1="1" y2="0">
                            <stop id="stop1" stop-color="rgba(248, 117, 55, 1)" offset="0%"></stop>
                            <stop id="stop2" stop-color="rgba(251, 168, 31, 1)" offset="100%"></stop>
                        </linearGradient>
                    </defs>
                <path fill="url(#sw-gradient)" d="M19.8,-25.2C24.4,-19.8,26.1,-12.3,28.5,-4.2C30.9,4,34.2,12.8,32.3,21C30.4,29.2,23.3,36.8,15,38.6C6.8,40.4,-2.5,36.5,-12.3,33.2C-22.2,30,-32.5,27.3,-37,20.7C-41.5,14.2,-40.3,3.6,-38.5,-6.9C-36.7,-17.3,-34.4,-27.8,-27.9,-32.9C-21.4,-38,-10.7,-37.6,-1.5,-35.8C7.6,-34,15.2,-30.6,19.8,-25.2Z" width="100%" height="100%" transform="translate(50 50)" style="transition: all 0.3s ease 0s;" stroke-width="0"></path>
              </svg>