<?xml version="1.0" standalone="no"?>
<svg xmlns:xlink="http://www.w3.org/1999/xlink" id="wave" style="transform:rotate(0deg); transition: 0.3s" viewBox="0 0 1440 490" version="1.1" xmlns="http://www.w3.org/2000/svg"><defs><linearGradient id="sw-gradient-0" x1="0" x2="0" y1="1" y2="0"><stop stop-color="rgba(5, 23, 37, 1)" offset="0%"/><stop stop-color="rgba(5, 23, 37, 1)" offset="100%"/></linearGradient></defs><path style="transform:translate(0, 0px); opacity:1" fill="url(#sw-gradient-0)" d="M0,98L30,106.2C60,114,120,131,180,130.7C240,131,300,114,360,138.8C420,163,480,229,540,253.2C600,278,660,261,720,245C780,229,840,212,900,196C960,180,1020,163,1080,171.5C1140,180,1200,212,1260,212.3C1320,212,1380,180,1440,155.2C1500,131,1560,114,1620,89.8C1680,65,1740,33,1800,65.3C1860,98,1920,196,1980,269.5C2040,343,2100,392,2160,383.8C2220,376,2280,310,2340,245C2400,180,2460,114,2520,114.3C2580,114,2640,180,2700,220.5C2760,261,2820,278,2880,285.8C2940,294,3000,294,3060,269.5C3120,245,3180,196,3240,220.5C3300,245,3360,343,3420,392C3480,441,3540,441,3600,375.7C3660,310,3720,180,3780,171.5C3840,163,3900,278,3960,334.8C4020,392,4080,392,4140,359.3C4200,327,4260,261,4290,228.7L4320,196L4320,490L4290,490C4260,490,4200,490,4140,490C4080,490,4020,490,3960,490C3900,490,3840,490,3780,490C3720,490,3660,490,3600,490C3540,490,3480,490,3420,490C3360,490,3300,490,3240,490C3180,490,3120,490,3060,490C3000,490,2940,490,2880,490C2820,490,2760,490,2700,490C2640,490,2580,490,2520,490C2460,490,2400,490,2340,490C2280,490,2220,490,2160,490C2100,490,2040,490,1980,490C1920,490,1860,490,1800,490C1740,490,1680,490,1620,490C1560,490,1500,490,1440,490C1380,490,1320,490,1260,490C1200,490,1140,490,1080,490C1020,490,960,490,900,490C840,490,780,490,720,490C660,490,600,490,540,490C480,490,420,490,360,490C300,490,240,490,180,490C120,490,60,490,30,490L0,490Z"/></svg>