<?xml version="1.0" standalone="no"?>
<svg xmlns:xlink="http://www.w3.org/1999/xlink" id="wave" style="transform:rotate(0deg); transition: 0.3s" viewBox="0 0 1440 490" version="1.1" xmlns="http://www.w3.org/2000/svg"><defs><linearGradient id="sw-gradient-0" x1="0" x2="0" y1="1" y2="0"><stop stop-color="rgba(243, 106, 62, 1)" offset="0%"/><stop stop-color="rgba(255, 179, 11, 1)" offset="100%"/></linearGradient></defs><path style="transform:translate(0, 0px); opacity:1" fill="url(#sw-gradient-0)" d="M0,98L26.7,106.2C53.3,114,107,131,160,130.7C213.3,131,267,114,320,138.8C373.3,163,427,229,480,253.2C533.3,278,587,261,640,245C693.3,229,747,212,800,196C853.3,180,907,163,960,171.5C1013.3,180,1067,212,1120,212.3C1173.3,212,1227,180,1280,155.2C1333.3,131,1387,114,1440,89.8C1493.3,65,1547,33,1600,65.3C1653.3,98,1707,196,1760,269.5C1813.3,343,1867,392,1920,383.8C1973.3,376,2027,310,2080,245C2133.3,180,2187,114,2240,114.3C2293.3,114,2347,180,2400,220.5C2453.3,261,2507,278,2560,285.8C2613.3,294,2667,294,2720,269.5C2773.3,245,2827,196,2880,220.5C2933.3,245,2987,343,3040,392C3093.3,441,3147,441,3200,375.7C3253.3,310,3307,180,3360,171.5C3413.3,163,3467,278,3520,334.8C3573.3,392,3627,392,3680,359.3C3733.3,327,3787,261,3813,228.7L3840,196L3840,490L3813.3,490C3786.7,490,3733,490,3680,490C3626.7,490,3573,490,3520,490C3466.7,490,3413,490,3360,490C3306.7,490,3253,490,3200,490C3146.7,490,3093,490,3040,490C2986.7,490,2933,490,2880,490C2826.7,490,2773,490,2720,490C2666.7,490,2613,490,2560,490C2506.7,490,2453,490,2400,490C2346.7,490,2293,490,2240,490C2186.7,490,2133,490,2080,490C2026.7,490,1973,490,1920,490C1866.7,490,1813,490,1760,490C1706.7,490,1653,490,1600,490C1546.7,490,1493,490,1440,490C1386.7,490,1333,490,1280,490C1226.7,490,1173,490,1120,490C1066.7,490,1013,490,960,490C906.7,490,853,490,800,490C746.7,490,693,490,640,490C586.7,490,533,490,480,490C426.7,490,373,490,320,490C266.7,490,213,490,160,490C106.7,490,53,490,27,490L0,490Z"/></svg>