<?xml version="1.0" standalone="no"?>
<svg xmlns:xlink="http://www.w3.org/1999/xlink" id="wave" style="transform:rotate(0deg); transition: 0.3s" viewBox="0 0 1440 490" version="1.1" xmlns="http://www.w3.org/2000/svg"><defs><linearGradient id="sw-gradient-0" x1="0" x2="0" y1="1" y2="0"><stop stop-color="rgba(255, 255, 255, 1)" offset="0%"/><stop stop-color="rgba(255, 255, 255, 1)" offset="100%"/></linearGradient></defs><path style="transform:translate(0, 0px); opacity:1" fill="url(#sw-gradient-0)" d="M0,98L80,106.2C160,114,320,131,480,130.7C640,131,800,114,960,138.8C1120,163,1280,229,1440,253.2C1600,278,1760,261,1920,245C2080,229,2240,212,2400,196C2560,180,2720,163,2880,171.5C3040,180,3200,212,3360,212.3C3520,212,3680,180,3840,155.2C4000,131,4160,114,4320,89.8C4480,65,4640,33,4800,65.3C4960,98,5120,196,5280,269.5C5440,343,5600,392,5760,383.8C5920,376,6080,310,6240,245C6400,180,6560,114,6720,114.3C6880,114,7040,180,7200,220.5C7360,261,7520,278,7680,285.8C7840,294,8000,294,8160,269.5C8320,245,8480,196,8640,220.5C8800,245,8960,343,9120,392C9280,441,9440,441,9600,375.7C9760,310,9920,180,10080,171.5C10240,163,10400,278,10560,334.8C10720,392,10880,392,11040,359.3C11200,327,11360,261,11440,228.7L11520,196L11520,490L11440,490C11360,490,11200,490,11040,490C10880,490,10720,490,10560,490C10400,490,10240,490,10080,490C9920,490,9760,490,9600,490C9440,490,9280,490,9120,490C8960,490,8800,490,8640,490C8480,490,8320,490,8160,490C8000,490,7840,490,7680,490C7520,490,7360,490,7200,490C7040,490,6880,490,6720,490C6560,490,6400,490,6240,490C6080,490,5920,490,5760,490C5600,490,5440,490,5280,490C5120,490,4960,490,4800,490C4640,490,4480,490,4320,490C4160,490,4000,490,3840,490C3680,490,3520,490,3360,490C3200,490,3040,490,2880,490C2720,490,2560,490,2400,490C2240,490,2080,490,1920,490C1760,490,1600,490,1440,490C1280,490,1120,490,960,490C800,490,640,490,480,490C320,490,160,490,80,490L0,490Z"/></svg>